<?xml version="1.0" encoding="UTF-8"?>
<svg xmlns="http://www.w3.org/2000/svg" viewBox="0 0 400 260" role="img" aria-label="">

  <defs>
    <linearGradient id="bgGrad" x1="0%" y1="0%" x2="100%" y2="100%">
      <stop offset="0%" stop-color="#060a0e"/>
      <stop offset="55%" stop-color="#0a0f14"/>
      <stop offset="100%" stop-color="#111820"/>
    </linearGradient>
    <linearGradient id="barGrad" x1="0%" y1="100%" x2="0%" y2="0%">
      <stop offset="0%" stop-color="#00f1fe" stop-opacity="0.45"/>
      <stop offset="100%" stop-color="#99f7ff" stop-opacity="0.15"/>
    </linearGradient>
    <radialGradient id="glow" cx="50%" cy="50%" r="50%"><stop offset="0%" stop-color="#00f1fe" stop-opacity="0.28"/><stop offset="70%" stop-color="#99f7ff" stop-opacity="0.05"/><stop offset="100%" stop-opacity="0"/></radialGradient>
    <filter id="soft" x="-20%" y="-20%" width="140%" height="140%">
      <feGaussianBlur stdDeviation="1.2" result="b"/>
      <feMerge><feMergeNode in="b"/><feMergeNode in="SourceGraphic"/></feMerge>
    </filter>
  </defs>
  <rect width="400" height="260" fill="url(#bgGrad)"/>

  <rect x="56" y="38" width="36" height="200" rx="8" fill="rgba(6,10,14,0.85)" stroke="#99f7ff" stroke-width="1"/>
  <rect x="60" y="198" width="28" height="40" fill="#5dcf8c" fill-opacity="0.82"/>
  <rect x="60" y="138" width="28" height="60" fill="#5b9fd4" fill-opacity="0.82"/>
  <rect x="60" y="98" width="28" height="40" fill="#ffb74d" fill-opacity="0.82"/>
  <rect x="60" y="48" width="28" height="50" fill="#ff6b6b" fill-opacity="0.82"/>
  <rect x="60" y="38" width="28" height="10" fill="#b388ff" fill-opacity="0.82"/>
  <text x="118" y="78" fill="rgba(234,238,246,0.22)" font-family="system-ui,sans-serif" font-size="8" font-weight="600">ЗОНЫ</text>
  <text x="118" y="98" fill="#5dcf8c" font-family="system-ui,sans-serif" font-size="9" font-weight="600">0–20</text>
  <text x="118" y="118" fill="#5b9fd4" font-family="system-ui,sans-serif" font-size="9" font-weight="600">20–50</text>
  <text x="118" y="148" fill="#ffb74d" font-family="system-ui,sans-serif" font-size="9" font-weight="600">50–70</text>
  <text x="118" y="178" fill="#ff6b6b" font-family="system-ui,sans-serif" font-size="9" font-weight="600">70–95</text>
  <text x="118" y="208" fill="#b388ff" font-family="system-ui,sans-serif" font-size="9" font-weight="600">95+</text>
  <rect x="220" y="204" width="20" height="24" rx="3" fill="url(#barGrad)" opacity="0.22"/>
  <rect x="248" y="191" width="20" height="37" rx="3" fill="url(#barGrad)" opacity="0.33999999999999997"/>
  <rect x="276" y="178" width="20" height="50" rx="3" fill="url(#barGrad)" opacity="0.45999999999999996"/>
  <rect x="304" y="205" width="20" height="23" rx="3" fill="url(#barGrad)" opacity="0.22"/>
  <rect x="332" y="192" width="20" height="36" rx="3" fill="url(#barGrad)" opacity="0.33999999999999997"/>
  <rect x="360" y="179" width="20" height="49" rx="3" fill="url(#barGrad)" opacity="0.45999999999999996"/>
  <text x="380" y="248" text-anchor="end" fill="rgba(234,238,246,0.22)" font-family="system-ui,Segoe UI,sans-serif" font-size="9" font-weight="600" letter-spacing="0.12em">02</text>
</svg>