<?xml version="1.0" encoding="UTF-8"?>
<svg xmlns="http://www.w3.org/2000/svg" viewBox="0 0 400 260" role="img" aria-label="">

  <defs>
    <linearGradient id="bgGrad" x1="0%" y1="0%" x2="100%" y2="100%">
      <stop offset="0%" stop-color="#060a0e"/>
      <stop offset="55%" stop-color="#0a0f14"/>
      <stop offset="100%" stop-color="#111820"/>
    </linearGradient>
    <linearGradient id="barGrad" x1="0%" y1="100%" x2="0%" y2="0%">
      <stop offset="0%" stop-color="#00f1fe" stop-opacity="0.45"/>
      <stop offset="100%" stop-color="#99f7ff" stop-opacity="0.15"/>
    </linearGradient>
    <radialGradient id="glow" cx="50%" cy="50%" r="50%"><stop offset="0%" stop-color="#00f1fe" stop-opacity="0.28"/><stop offset="70%" stop-color="#99f7ff" stop-opacity="0.05"/><stop offset="100%" stop-opacity="0"/></radialGradient>
    <filter id="soft" x="-20%" y="-20%" width="140%" height="140%">
      <feGaussianBlur stdDeviation="1.2" result="b"/>
      <feMerge><feMergeNode in="b"/><feMergeNode in="SourceGraphic"/></feMerge>
    </filter>
  </defs>
  <rect width="400" height="260" fill="url(#bgGrad)"/>

  <circle cx="120" cy="118" r="48" fill="rgba(153,247,255,0.06)" stroke="#99f7ff" stroke-width="1.3"/>
  <circle cx="280" cy="118" r="48" fill="rgba(153,247,255,0.06)" stroke="#99f7ff" stroke-width="1.3"/>
  <path d="M168 118 L232 118" stroke="#00f1fe" stroke-width="1.5" stroke-dasharray="3 5" opacity="0.6"/>
  <text x="200" y="200" text-anchor="middle" fill="rgba(234,238,246,0.22)" font-family="system-ui,sans-serif" font-size="8" letter-spacing="0.14em">КОНТЕКСТ · КОНТРОЛЬ</text>
  
  <circle cx="200" cy="118" r="88" fill="url(#glow)" opacity="0.85"/>
  <circle cx="200" cy="118" r="62" fill="none" stroke="rgba(234,238,246,0.22)" stroke-width="1" stroke-dasharray="4 7" opacity="0.65"/>
  <circle cx="200" cy="118" r="28" fill="none" stroke="#99f7ff" stroke-width="1.1" opacity="0.3" filter="url(#soft)"/>
  <circle cx="165.3" cy="94.3" r="4" fill="none" stroke="#99f7ff" stroke-width="1.2" opacity="0.4"/>
  <circle cx="188.6" cy="77.6" r="5" fill="none" stroke="#99f7ff" stroke-width="1.2" opacity="0.5"/>
  <circle cx="217.3" cy="79.7" r="6" fill="none" stroke="#99f7ff" stroke-width="1.2" opacity="0.6000000000000001"/>
  <circle cx="237.8" cy="99.8" r="4" fill="none" stroke="#99f7ff" stroke-width="1.2" opacity="0.7000000000000001"/>
  <circle cx="240.7" cy="128.4" r="5" fill="none" stroke="#99f7ff" stroke-width="1.2" opacity="0.4"/>
  <circle cx="224.5" cy="152.1" r="6" fill="none" stroke="#99f7ff" stroke-width="1.2" opacity="0.5"/>
  <circle cx="196.9" cy="159.9" r="4" fill="none" stroke="#99f7ff" stroke-width="1.2" opacity="0.6000000000000001"/>
  <circle cx="170.7" cy="148.1" r="5" fill="none" stroke="#99f7ff" stroke-width="1.2" opacity="0.7000000000000001"/>
  <circle cx="158.2" cy="122.2" r="6" fill="none" stroke="#99f7ff" stroke-width="1.2" opacity="0.4"/>
  <path d="M 152 118 Q 200 94.9 248 118" fill="none" stroke="#00f1fe" stroke-width="0.9" opacity="0.22"/>
  <rect x="48" y="194" width="18" height="44" rx="3" fill="url(#barGrad)" opacity="0.22"/>
  <rect x="78" y="181" width="18" height="57" rx="3" fill="url(#barGrad)" opacity="0.33999999999999997"/>
  <rect x="108" y="208" width="18" height="30" rx="3" fill="url(#barGrad)" opacity="0.45999999999999996"/>
  <rect x="138" y="195" width="18" height="43" rx="3" fill="url(#barGrad)" opacity="0.22"/>
  <rect x="168" y="182" width="18" height="56" rx="3" fill="url(#barGrad)" opacity="0.33999999999999997"/>
  <rect x="198" y="209" width="18" height="29" rx="3" fill="url(#barGrad)" opacity="0.45999999999999996"/>
  <rect x="228" y="196" width="18" height="42" rx="3" fill="url(#barGrad)" opacity="0.22"/>
  <text x="380" y="248" text-anchor="end" fill="rgba(234,238,246,0.22)" font-family="system-ui,Segoe UI,sans-serif" font-size="9" font-weight="600" letter-spacing="0.12em">22</text>
</svg>