<?xml version="1.0" encoding="UTF-8"?>
<svg xmlns="http://www.w3.org/2000/svg" viewBox="0 0 400 260" role="img" aria-label="">

  <defs>
    <linearGradient id="bgGrad" x1="0%" y1="0%" x2="100%" y2="100%">
      <stop offset="0%" stop-color="#060a0e"/>
      <stop offset="55%" stop-color="#0a0f14"/>
      <stop offset="100%" stop-color="#111820"/>
    </linearGradient>
    <linearGradient id="barGrad" x1="0%" y1="100%" x2="0%" y2="0%">
      <stop offset="0%" stop-color="#00f1fe" stop-opacity="0.45"/>
      <stop offset="100%" stop-color="#99f7ff" stop-opacity="0.15"/>
    </linearGradient>
    <radialGradient id="glow" cx="50%" cy="50%" r="50%"><stop offset="0%" stop-color="#00f1fe" stop-opacity="0.28"/><stop offset="70%" stop-color="#99f7ff" stop-opacity="0.05"/><stop offset="100%" stop-opacity="0"/></radialGradient>
    <filter id="soft" x="-20%" y="-20%" width="140%" height="140%">
      <feGaussianBlur stdDeviation="1.2" result="b"/>
      <feMerge><feMergeNode in="b"/><feMergeNode in="SourceGraphic"/></feMerge>
    </filter>
  </defs>
  <rect width="400" height="260" fill="url(#bgGrad)"/>
<rect x="38" y="74" width="64" height="72" rx="14" fill="rgba(153,247,255,0.08)" stroke="#99f7ff" stroke-width="1.2"/>
  <text x="70" y="116" text-anchor="middle" fill="#eaeef6" font-family="system-ui,sans-serif" font-size="12" font-weight="700">Д</text>
  <rect x="138" y="74" width="64" height="72" rx="14" fill="rgba(153,247,255,0.08)" stroke="#99f7ff" stroke-width="1.2"/>
  <text x="170" y="116" text-anchor="middle" fill="#eaeef6" font-family="system-ui,sans-serif" font-size="12" font-weight="700">Т</text>
  <rect x="238" y="74" width="64" height="72" rx="14" fill="rgba(153,247,255,0.08)" stroke="#99f7ff" stroke-width="1.2"/>
  <text x="270" y="116" text-anchor="middle" fill="#eaeef6" font-family="system-ui,sans-serif" font-size="12" font-weight="700">В</text>
  <rect x="338" y="74" width="64" height="72" rx="14" fill="rgba(153,247,255,0.08)" stroke="#99f7ff" stroke-width="1.2"/>
  <text x="370" y="116" text-anchor="middle" fill="#eaeef6" font-family="system-ui,sans-serif" font-size="12" font-weight="700">Р</text>
  <rect x="52" y="201" width="20" height="27" rx="3" fill="url(#barGrad)" opacity="0.22"/>
  <rect x="82" y="188" width="20" height="40" rx="3" fill="url(#barGrad)" opacity="0.33999999999999997"/>
  <rect x="112" y="175" width="20" height="53" rx="3" fill="url(#barGrad)" opacity="0.45999999999999996"/>
  <rect x="142" y="202" width="20" height="26" rx="3" fill="url(#barGrad)" opacity="0.22"/>
  <rect x="172" y="189" width="20" height="39" rx="3" fill="url(#barGrad)" opacity="0.33999999999999997"/>
  <rect x="202" y="176" width="20" height="52" rx="3" fill="url(#barGrad)" opacity="0.45999999999999996"/>
  <rect x="232" y="203" width="20" height="25" rx="3" fill="url(#barGrad)" opacity="0.22"/>
  <text x="380" y="248" text-anchor="end" fill="rgba(234,238,246,0.22)" font-family="system-ui,Segoe UI,sans-serif" font-size="9" font-weight="600" letter-spacing="0.12em">05</text>
</svg>