<?xml version="1.0" encoding="UTF-8"?>
<svg xmlns="http://www.w3.org/2000/svg" viewBox="0 0 400 260" role="img" aria-label="">

  <defs>
    <linearGradient id="bgGrad" x1="0%" y1="0%" x2="100%" y2="100%">
      <stop offset="0%" stop-color="#060a0e"/>
      <stop offset="55%" stop-color="#0a0f14"/>
      <stop offset="100%" stop-color="#111820"/>
    </linearGradient>
    <linearGradient id="barGrad" x1="0%" y1="100%" x2="0%" y2="0%">
      <stop offset="0%" stop-color="#00f1fe" stop-opacity="0.45"/>
      <stop offset="100%" stop-color="#99f7ff" stop-opacity="0.15"/>
    </linearGradient>
    <radialGradient id="glow" cx="50%" cy="50%" r="50%"><stop offset="0%" stop-color="#00f1fe" stop-opacity="0.28"/><stop offset="70%" stop-color="#99f7ff" stop-opacity="0.05"/><stop offset="100%" stop-opacity="0"/></radialGradient>
    <filter id="soft" x="-20%" y="-20%" width="140%" height="140%">
      <feGaussianBlur stdDeviation="1.2" result="b"/>
      <feMerge><feMergeNode in="b"/><feMergeNode in="SourceGraphic"/></feMerge>
    </filter>
  </defs>
  <rect width="400" height="260" fill="url(#bgGrad)"/>

  <defs><marker id="arr" markerWidth="6" markerHeight="6" refX="5" refY="3" orient="auto"><path d="M0,0 L6,3 L0,6 Z" fill="#00f1fe"/></marker></defs>
  <rect x="52" y="96" width="76" height="52" rx="12" fill="rgba(153,247,255,0.07)" stroke="#99f7ff" stroke-width="1"/>
  <text x="90" y="128" text-anchor="middle" fill="#eaeef6" font-family="system-ui,sans-serif" font-size="10" font-weight="700">В</text>
  <line x1="128" y1="122" x2="138" y2="122" stroke="#00f1fe" stroke-width="1.5" marker-end="url(#arr)"/>
  <rect x="138" y="96" width="76" height="52" rx="12" fill="rgba(153,247,255,0.07)" stroke="#99f7ff" stroke-width="1"/>
  <text x="176" y="128" text-anchor="middle" fill="#eaeef6" font-family="system-ui,sans-serif" font-size="10" font-weight="700">П</text>
  <line x1="214" y1="122" x2="224" y2="122" stroke="#00f1fe" stroke-width="1.5" marker-end="url(#arr)"/>
  <rect x="224" y="96" width="76" height="52" rx="12" fill="rgba(153,247,255,0.07)" stroke="#99f7ff" stroke-width="1"/>
  <text x="262" y="128" text-anchor="middle" fill="#eaeef6" font-family="system-ui,sans-serif" font-size="10" font-weight="700">П</text>
  <line x1="300" y1="122" x2="310" y2="122" stroke="#00f1fe" stroke-width="1.5" marker-end="url(#arr)"/>
  <rect x="310" y="96" width="76" height="52" rx="12" fill="rgba(153,247,255,0.07)" stroke="#99f7ff" stroke-width="1"/>
  <text x="348" y="128" text-anchor="middle" fill="#eaeef6" font-family="system-ui,sans-serif" font-size="10" font-weight="700">Э</text>
  
  <circle cx="200" cy="210" r="88" fill="url(#glow)" opacity="0.85"/>
  <circle cx="200" cy="210" r="62" fill="none" stroke="rgba(234,238,246,0.22)" stroke-width="1" stroke-dasharray="4 7" opacity="0.65"/>
  <circle cx="200" cy="210" r="30" fill="none" stroke="#99f7ff" stroke-width="1.1" opacity="0.3" filter="url(#soft)"/>
  <circle cx="188.8" cy="172.7" r="4" fill="none" stroke="#99f7ff" stroke-width="1.2" opacity="0.4"/>
  <circle cx="222.2" cy="177.9" r="5" fill="none" stroke="#99f7ff" stroke-width="1.2" opacity="0.5"/>
  <circle cx="238.9" cy="207.4" r="6" fill="none" stroke="#99f7ff" stroke-width="1.2" opacity="0.6000000000000001"/>
  <circle cx="226.3" cy="238.8" r="4" fill="none" stroke="#99f7ff" stroke-width="1.2" opacity="0.7000000000000001"/>
  <circle cx="193.9" cy="248.5" r="5" fill="none" stroke="#99f7ff" stroke-width="1.2" opacity="0.4"/>
  <circle cx="166.1" cy="229.3" r="6" fill="none" stroke="#99f7ff" stroke-width="1.2" opacity="0.5"/>
  <circle cx="163.8" cy="195.5" r="4" fill="none" stroke="#99f7ff" stroke-width="1.2" opacity="0.6000000000000001"/>
  <path d="M 155 210 Q 200 188.55 245 210" fill="none" stroke="#00f1fe" stroke-width="0.9" opacity="0.22"/>
  <text x="380" y="248" text-anchor="end" fill="rgba(234,238,246,0.22)" font-family="system-ui,Segoe UI,sans-serif" font-size="9" font-weight="600" letter-spacing="0.12em">26</text>
</svg>