<?xml version="1.0" encoding="UTF-8"?>
<svg xmlns="http://www.w3.org/2000/svg" viewBox="0 0 400 260" role="img" aria-label="">

  <defs>
    <linearGradient id="bgGrad" x1="0%" y1="0%" x2="100%" y2="100%">
      <stop offset="0%" stop-color="#060a0e"/>
      <stop offset="55%" stop-color="#0a0f14"/>
      <stop offset="100%" stop-color="#111820"/>
    </linearGradient>
    <linearGradient id="barGrad" x1="0%" y1="100%" x2="0%" y2="0%">
      <stop offset="0%" stop-color="#00f1fe" stop-opacity="0.45"/>
      <stop offset="100%" stop-color="#99f7ff" stop-opacity="0.15"/>
    </linearGradient>
    <radialGradient id="glow" cx="50%" cy="50%" r="50%"><stop offset="0%" stop-color="#00f1fe" stop-opacity="0.28"/><stop offset="70%" stop-color="#99f7ff" stop-opacity="0.05"/><stop offset="100%" stop-opacity="0"/></radialGradient>
    <filter id="soft" x="-20%" y="-20%" width="140%" height="140%">
      <feGaussianBlur stdDeviation="1.2" result="b"/>
      <feMerge><feMergeNode in="b"/><feMergeNode in="SourceGraphic"/></feMerge>
    </filter>
  </defs>
  <rect width="400" height="260" fill="url(#bgGrad)"/>

  <ellipse cx="200" cy="125" rx="118" ry="68" fill="none" stroke="#99f7ff" stroke-width="1.2" opacity="0.35"/>
  <ellipse cx="200" cy="125" rx="72" ry="46" fill="rgba(0,241,254,0.1)" stroke="#00f1fe" stroke-width="1.6"/>
  <text x="200" y="130" text-anchor="middle" fill="#eaeef6" font-family="system-ui,sans-serif" font-size="11" font-weight="600">PC</text>
  <rect x="48" y="193" width="18" height="39" rx="3" fill="url(#barGrad)" opacity="0.22"/>
  <rect x="78" y="180" width="18" height="52" rx="3" fill="url(#barGrad)" opacity="0.33999999999999997"/>
  <rect x="108" y="207" width="18" height="25" rx="3" fill="url(#barGrad)" opacity="0.45999999999999996"/>
  <rect x="138" y="194" width="18" height="38" rx="3" fill="url(#barGrad)" opacity="0.22"/>
  <rect x="168" y="181" width="18" height="51" rx="3" fill="url(#barGrad)" opacity="0.33999999999999997"/>
  <rect x="198" y="208" width="18" height="24" rx="3" fill="url(#barGrad)" opacity="0.45999999999999996"/>
  <rect x="228" y="195" width="18" height="37" rx="3" fill="url(#barGrad)" opacity="0.22"/>
  <rect x="258" y="182" width="18" height="50" rx="3" fill="url(#barGrad)" opacity="0.33999999999999997"/>
  <text x="380" y="248" text-anchor="end" fill="rgba(234,238,246,0.22)" font-family="system-ui,Segoe UI,sans-serif" font-size="9" font-weight="600" letter-spacing="0.12em">17</text>
</svg>