<svg xmlns="http://www.w3.org/2000/svg" viewBox="0 0 800 1400" preserveAspectRatio="xMidYMid slice">
  <defs>
    <linearGradient id="Nbg" x1="0%" y1="0%" x2="100%" y2="100%">
      <stop offset="0%" stop-color="#050810"/>
      <stop offset="100%" stop-color="#080c18"/>
    </linearGradient>
    <radialGradient id="Nh" cx="50%" cy="30%" r="70%">
      <stop offset="0%" stop-color="#157d8c" stop-opacity="0.2"/>
      <stop offset="100%" stop-color="#000" stop-opacity="0"/>
    </radialGradient>
  </defs>
  <rect width="800" height="1400" fill="url(#Nbg)"/>
  <rect width="800" height="1400" fill="url(#Nh)"/>
  <g stroke="#00f1fe" stroke-opacity="0.1" stroke-width="0.8" fill="none">
    <path d="M100 200 L280 380 L200 600 L420 720 L640 520 L700 300"/>
    <path d="M200 400 L440 280 L520 480 L360 780"/>
    <path d="M60 700 L240 900 L500 1000 L720 820"/>
  </g>
  <g fill="#99f7ff">
    <circle cx="100" cy="200" r="4" opacity="0.35"/>
    <circle cx="280" cy="380" r="3" opacity="0.3"/>
    <circle cx="420" cy="720" r="5" opacity="0.4"/>
    <circle cx="640" cy="520" r="3" opacity="0.28"/>
    <circle cx="240" cy="900" r="4" opacity="0.32"/>
    <circle cx="500" cy="1000" r="3" opacity="0.25"/>
    <circle cx="520" cy="480" r="3" opacity="0.22"/>
  </g>
</svg>
